<svg width="24" height="24" viewBox="0 0 24 24" fill="none" xmlns="http://www.w3.org/2000/svg">
<path d="M12.741 20.917C12.2741 20.9167 11.8078 20.8816 11.346 20.812C9.32387 20.4922 7.4676 19.5028 6.07468 18.0024C4.68176 16.502 3.83285 14.5775 3.66397 12.5372C3.4951 10.4968 4.01605 8.4589 5.14333 6.74992C6.27061 5.04093 7.93896 3.75984 9.88103 3.11195C10.0889 3.0413 10.3123 3.03017 10.5261 3.07983C10.7399 3.12948 10.9356 3.23794 11.091 3.39295C11.2594 3.55737 11.379 3.76525 11.4363 3.9935C11.4937 4.22176 11.4867 4.46145 11.416 4.68595C11.1493 5.55325 11.03 6.45916 11.063 7.36595C11.1384 8.7882 11.5799 10.1668 12.3449 11.3682C13.1098 12.5696 14.1722 13.553 15.429 14.2229C16.5611 14.8651 17.8386 15.207 19.14 15.216C19.3667 15.2191 19.5881 15.2842 19.7804 15.4042C19.9727 15.5242 20.1285 15.6945 20.2309 15.8968C20.3333 16.099 20.3784 16.3253 20.3613 16.5514C20.3442 16.7774 20.2656 16.9944 20.134 17.179C19.2827 18.3397 18.1695 19.2833 16.8849 19.9328C15.6003 20.5823 14.1805 20.9195 12.741 20.917ZM10.261 4.04995C10.2389 4.05019 10.217 4.0539 10.196 4.06095C8.98034 4.46438 7.87705 5.14912 6.97595 6.05944C6.07484 6.96976 5.40137 8.07996 5.01034 9.2997C4.6193 10.5194 4.52174 11.8143 4.72559 13.0788C4.92945 14.3434 5.42896 15.542 6.18349 16.577C6.93802 17.6121 7.92624 18.4544 9.06776 19.0355C10.2093 19.6165 11.4719 19.9198 12.7527 19.9208C14.0336 19.9218 15.2967 19.6203 16.4391 19.041C17.5814 18.4617 18.5709 17.6209 19.327 16.587C19.3508 16.5528 19.3646 16.5128 19.3669 16.4713C19.3692 16.4298 19.3599 16.3885 19.34 16.3519C19.322 16.3122 19.2931 16.2783 19.2566 16.2543C19.2202 16.2302 19.1777 16.2169 19.134 16.216C17.6658 16.2067 16.2242 15.8226 14.946 15.1C13.5379 14.3457 12.3484 13.2405 11.4929 11.8915C10.6374 10.5424 10.1449 8.99529 10.063 7.39995C10.0275 6.38198 10.1627 5.36526 10.463 4.39195C10.4783 4.34264 10.48 4.29011 10.4678 4.23993C10.4557 4.18976 10.4302 4.1438 10.394 4.10695C10.3769 4.08895 10.3562 4.07462 10.3334 4.06483C10.3105 4.05503 10.2859 4.04997 10.261 4.04995Z" fill="black"/>
</svg>
