<svg width="22" height="22" viewBox="0 0 22 22" fill="none" xmlns="http://www.w3.org/2000/svg">
<g clip-path="url(#clip0_304_1887)">
<path d="M15.8583 2.79578C18.4708 2.79578 20.625 5.17911 20.625 8.06661C20.625 11.1833 17.9208 13.1083 15.3542 15.3999C12.7875 17.6916 11.4583 18.9291 11 19.2041C10.4958 18.8833 8.84583 17.3708 6.64583 15.3999C4.03333 13.1083 1.375 11.1833 1.375 8.06661C1.375 5.17911 3.52917 2.79578 6.14167 2.79578C8.06667 2.79578 9.12083 3.71244 9.85417 4.76661C10.725 5.95828 10.8625 6.55411 11 6.55411C11.1375 6.55411 11.275 5.95828 12.1458 4.76661C12.8792 3.71244 13.9333 2.79578 15.8583 2.79578ZM15.8583 1.42078C13.7958 1.42078 12.2375 2.24578 11 3.98744C9.7625 2.29161 8.20417 1.46661 6.14167 1.46661C2.75 1.42078 0 4.39994 0 8.06661C0 11.4124 2.475 13.5666 4.85833 15.6291C5.13333 15.8583 5.45417 16.1333 5.72917 16.4083L6.78333 17.3249C8.8 19.1124 9.80833 20.0291 10.2667 20.3041C10.4958 20.4416 10.7708 20.5333 11 20.5333C11.275 20.5333 11.5042 20.4416 11.7333 20.3041C12.1917 20.0291 13.0167 19.2958 15.3083 17.1874L16.225 16.3624C16.5458 16.0874 16.8208 15.8124 17.1417 15.5833C19.5708 13.5666 22 11.4583 22 8.06661C22 4.39994 19.25 1.42078 15.8583 1.42078Z" fill="#262626"/>
</g>
<defs>
<clipPath id="clip0_304_1887">
<rect width="22" height="22" fill="white"/>
</clipPath>
</defs>
</svg>
