<svg width="22" height="22" viewBox="0 0 22 22" fill="none" xmlns="http://www.w3.org/2000/svg">
<g clip-path="url(#clip0_291_1873)">
<path d="M20.8542 22H13.7959C13.4292 22 13.1084 21.6791 13.1084 21.3125V15.675C13.1084 14.4833 12.1459 13.5666 11 13.5666C9.85421 13.5666 8.89171 14.5291 8.89171 15.675V21.3125C8.89171 21.6791 8.57087 22 8.20421 22H1.14587C0.779207 22 0.458374 21.6791 0.458374 21.3125V10.5416C0.458374 10.3583 0.550041 10.175 0.641707 10.0375L10.4959 0.183301C10.7709 -0.0916992 11.2292 -0.0916992 11.4584 0.183301L21.3125 10.0375C21.45 10.175 21.4959 10.3583 21.4959 10.5416V21.3125C21.5417 21.6791 21.2209 22 20.8542 22Z" fill="#262626"/>
</g>
<defs>
<clipPath id="clip0_291_1873">
<rect width="22" height="22" fill="white"/>
</clipPath>
</defs>
</svg>
