<svg width="22" height="22" viewBox="0 0 22 22" fill="none" xmlns="http://www.w3.org/2000/svg">
<g clip-path="url(#clip0_291_1876)">
<path d="M16.5917 7.65421L13.2917 10.175C13.0625 10.3584 12.7417 10.3584 12.5125 10.175L10.0375 8.34171C9.30421 7.79171 8.25004 7.97504 7.74587 8.75421L4.62921 13.6584C4.30837 14.1167 4.90421 14.6667 5.36254 14.3459L8.70837 11.825C8.93754 11.6417 9.25837 11.6417 9.48754 11.825L11.9625 13.6584C12.6959 14.2084 13.75 14.025 14.2542 13.2459L17.3709 8.34171C17.6459 7.83754 17.05 7.33337 16.5917 7.65421ZM11 0.458374C5.04171 0.458374 0.458374 4.81254 0.458374 10.6792C0.458374 13.75 1.69587 16.4084 3.75837 18.2417C3.94171 18.3792 4.03337 18.6084 4.03337 18.8375L4.12504 20.7167C4.12504 21.175 4.53754 21.5417 4.95004 21.5417C5.04171 21.5417 5.17921 21.5417 5.27087 21.45L7.37921 20.5334C7.47087 20.4875 7.60837 20.4417 7.70004 20.4417C7.79171 20.4417 7.83754 20.4417 7.92921 20.4875C8.89171 20.7625 9.90004 20.9 11 20.9C16.9584 20.9 21.5417 16.5459 21.5417 10.6792C21.5417 4.81254 16.9584 0.458374 11 0.458374ZM11 19.525C10.0834 19.525 9.16671 19.3875 8.29587 19.1584C8.11254 19.1125 7.92921 19.0667 7.70004 19.0667C7.37921 19.0667 7.10421 19.1125 6.78337 19.25L5.40837 19.8459V18.7917C5.40837 18.1959 5.13337 17.6459 4.67504 17.2334C2.84171 15.5834 1.83337 13.2459 1.83337 10.6792C1.83337 5.63754 5.77504 1.83337 11 1.83337C16.225 1.83337 20.1667 5.63754 20.1667 10.6792C20.1667 15.7209 16.225 19.525 11 19.525Z" fill="#262626"/>
</g>
<defs>
<clipPath id="clip0_291_1876">
<rect width="22" height="22" fill="white"/>
</clipPath>
</defs>
</svg>
