<svg width="10" height="10" viewBox="0 0 10 10" fill="none" xmlns="http://www.w3.org/2000/svg">
<path d="M4.16659 7.50004C4.90616 7.49989 5.62442 7.2523 6.207 6.79671L8.03867 8.62837L8.62784 8.03921L6.79617 6.20754C7.252 5.6249 7.49974 4.90647 7.49992 4.16671C7.49992 2.32879 6.0045 0.833374 4.16659 0.833374C2.32867 0.833374 0.833252 2.32879 0.833252 4.16671C0.833252 6.00462 2.32867 7.50004 4.16659 7.50004ZM4.16659 1.66671C5.54534 1.66671 6.66659 2.78796 6.66659 4.16671C6.66659 5.54546 5.54534 6.66671 4.16659 6.66671C2.78784 6.66671 1.66659 5.54546 1.66659 4.16671C1.66659 2.78796 2.78784 1.66671 4.16659 1.66671Z" fill="#8E8E8E"/>
</svg>
