<svg width="18" height="19" viewBox="0 0 18 19" fill="none" xmlns="http://www.w3.org/2000/svg">
<path fill-rule="evenodd" clip-rule="evenodd" d="M7.99999 0.25C6.48121 0.25 5.24999 1.48122 5.24999 3V5H4.19573C2.66259 5 1.37614 6.15598 1.21281 7.6804L0.355662 15.6804C0.165678 17.4536 1.55526 19 3.33859 19H14.6614C16.4447 19 17.8343 17.4536 17.6443 15.6804L16.7872 7.6804C16.6238 6.15598 15.3374 5 13.8042 5H12.75V3C12.75 1.48122 11.5188 0.25 9.99999 0.25H7.99999ZM11.25 5V3C11.25 2.30964 10.6903 1.75 9.99999 1.75H7.99999C7.30964 1.75 6.74999 2.30965 6.74999 3V5H11.25ZM4.19573 6.5H13.8042C14.5708 6.5 15.214 7.07799 15.2957 7.8402L16.1529 15.8402C16.2478 16.7268 15.5531 17.5 14.6614 17.5H3.33859C2.44692 17.5 1.75213 16.7268 1.84713 15.8402L2.70427 7.8402C2.78594 7.07799 3.42916 6.5 4.19573 6.5Z" fill="#999999"/>
</svg>
