<svg width="25" height="22" viewBox="0 0 25 22" fill="none" xmlns="http://www.w3.org/2000/svg">
<path fill-rule="evenodd" clip-rule="evenodd" d="M12.6225 3.40511L11.9675 2.63951C9.33142 0.00346732 5.12761 0.1831 2.49157 2.81914C-0.144471 5.45518 0.362841 10.5515 2.99888 13.1875C4.06874 14.2574 5.67092 15.7387 7.80542 17.6315L9.60115 19.2112L11.6181 20.962C12.1734 21.4413 12.9939 21.4486 13.5577 20.9793L15.1916 19.6094C18.0529 17.1913 20.1762 15.2866 21.5615 13.8954L21.921 13.5288L22.2439 13.1875C24.6989 10.5401 25.3298 5.39387 22.755 2.81914L22.5685 2.63951C19.9211 0.184526 15.929 0.0647707 13.3542 2.63951L12.6225 3.40511ZM3.55223 3.8798C5.63666 1.79537 8.86137 1.69765 10.868 3.66183L12.5611 5.64048L14.4386 3.67588C16.3645 1.75055 19.4338 1.77838 21.5486 3.73939L21.7145 3.89958C23.5339 5.71937 23.2244 9.92411 21.144 12.1676L20.8315 12.4977L20.4848 12.8512C19.3364 14.0037 17.6345 15.5478 15.3905 17.4708L14.2234 18.4638L12.5981 19.8264L10.5844 18.0785L9.14319 16.8125C7.11239 15.0176 5.54575 13.582 4.44885 12.5113L4.05954 12.1269C1.888 9.95535 1.6164 5.81563 3.55223 3.8798Z" fill="#262626"/>
</svg>
