<svg width="10" height="10" viewBox="0 0 10 10" fill="none" xmlns="http://www.w3.org/2000/svg">
<path d="M4.16665 7.50001C4.90622 7.49986 5.62448 7.25227 6.20706 6.79668L8.03873 8.62834L8.6279 8.03918L6.79623 6.20751C7.25206 5.62487 7.4998 4.90644 7.49998 4.16668C7.49998 2.32876 6.00456 0.833344 4.16665 0.833344C2.32873 0.833344 0.833313 2.32876 0.833313 4.16668C0.833313 6.00459 2.32873 7.50001 4.16665 7.50001ZM4.16665 1.66668C5.5454 1.66668 6.66665 2.78793 6.66665 4.16668C6.66665 5.54543 5.5454 6.66668 4.16665 6.66668C2.7879 6.66668 1.66665 5.54543 1.66665 4.16668C1.66665 2.78793 2.7879 1.66668 4.16665 1.66668Z" fill="#8E8E8E"/>
</svg>
