<svg width="20" height="20" viewBox="0 0 20 20" fill="none" xmlns="http://www.w3.org/2000/svg">
<g clip-path="url(#clip0_3_3014)">
<path d="M18.2265 0.7547H1.77495C1.21145 0.7547 0.754639 1.21151 0.754639 1.77501V18.2266C0.754639 18.7901 1.21145 19.2469 1.77495 19.2469H18.2265C18.79 19.2469 19.2468 18.7901 19.2468 18.2266V1.77501C19.2468 1.21151 18.79 0.7547 18.2265 0.7547Z" fill="#3D5A98"/>
<path d="M13.5125 19.2453V12.0843H15.9157L16.275 9.29372H13.5125V7.51247C13.5125 6.70466 13.7375 6.1531 14.8954 6.1531H16.3735V3.6531C15.6577 3.5785 14.9384 3.54303 14.2188 3.54685C12.0907 3.54685 10.625 4.84372 10.625 7.23591V9.29372H8.22192V12.0843H10.625V19.2453H13.5125Z" fill="white"/>
</g>
<defs>
<clipPath id="clip0_3_3014">
<rect width="20" height="20" fill="white"/>
</clipPath>
</defs>
</svg>
